<svg aria-hidden="true" style="position:absolute;width:0;height:0" xmlns="http://www.w3.org/2000/svg" overflow="hidden"><defs><symbol id="icon-1" viewBox="0 0 32 32"><path fill="#fcb73f" d="M27.966 26.605A15.931 15.931 0 0032 16c0-4.23-1.653-8.079-4.343-10.943v-.001c-.002-.003-.006-.004-.007-.007A15.95 15.95 0 0016.555.014l-.001-.001-.312-.008c-.081-.003-.161-.006-.242-.006s-.162.003-.242.006l-.311.008-.001.001A15.955 15.955 0 004.351 5.049c-.002.003-.006.004-.007.007l-.001.001A15.93 15.93 0 00-.001 15.999a15.93 15.93 0 004.034 10.605c.003.005.003.01.007.015.01.014.024.02.035.033a15.962 15.962 0 0011.37 5.332l.001.001.311.008c.081.002.162.005.243.005s.162-.003.242-.006l.311-.008.001-.001a15.964 15.964 0 0011.379-5.343c.007-.009.019-.012.025-.022.004-.004.004-.01.008-.015zM1.117 16.552h6.622a20.382 20.382 0 001.332 6.74 20.365 20.365 0 00-4.475 2.279 14.83 14.83 0 01-3.48-9.02zm3.781-10.47a20.274 20.274 0 004.359 2.142 20.357 20.357 0 00-1.517 7.225H1.118a14.836 14.836 0 013.781-9.367zm25.985 9.366h-6.622a20.378 20.378 0 00-1.517-7.225 20.297 20.297 0 004.359-2.142 14.836 14.836 0 013.781 9.367zM15.448 8.255a19.272 19.272 0 01-4.674-.708 19.289 19.289 0 014.674-6.089v6.797zm0 1.104v6.089H8.843a19.27 19.27 0 011.471-6.883c1.658.481 3.38.746 5.134.793zm1.104 0a20.378 20.378 0 005.135-.793 19.27 19.27 0 011.471 6.883h-6.606V9.36zm0-1.104V1.458a19.318 19.318 0 014.674 6.089 19.272 19.272 0 01-4.674.708zm5.743-1.043a20.377 20.377 0 00-4.352-5.978 14.857 14.857 0 018.377 4.038 19.174 19.174 0 01-4.025 1.94zm-12.59 0a19.192 19.192 0 01-4.024-1.94 14.854 14.854 0 018.377-4.038 20.363 20.363 0 00-4.353 5.978zm-.862 9.34h6.605v5.538a20.361 20.361 0 00-5.33.85 19.269 19.269 0 01-1.275-6.388zm6.605 6.641v7.348a19.31 19.31 0 01-4.902-6.575 19.23 19.23 0 014.902-.773zm1.104 7.348v-7.348c1.677.047 3.32.307 4.902.772a19.278 19.278 0 01-4.902 6.575zm0-8.451v-5.538h6.605a19.25 19.25 0 01-1.276 6.389 20.32 20.32 0 00-5.33-.851zm7.708-5.538h6.622a14.827 14.827 0 01-3.48 9.02 20.365 20.365 0 00-4.475-2.279 20.362 20.362 0 001.332-6.74zM5.347 26.398a19.217 19.217 0 014.147-2.086 20.357 20.357 0 004.563 6.454 14.864 14.864 0 01-8.711-4.368zm12.596 4.368a20.341 20.341 0 004.563-6.454 19.24 19.24 0 014.147 2.086 14.864 14.864 0 01-8.711 4.368z"/></symbol><symbol id="icon-2" viewBox="0 0 32 32"><path fill="#fd642f" d="M28.771 21.292l2.189-2.189a3.559 3.559 0 00-1.482-5.916 3.532 3.532 0 00.688-2.103c0-.949-.37-1.842-1.041-2.514a3.528 3.528 0 00-2.633-1.039 3.55 3.55 0 00-3.669-3.669l.002-.119c0-.95-.37-1.842-1.041-2.514a3.559 3.559 0 00-5.027 0L16 1.986l-.757-.757C14.572.557 13.679.187 12.729.187s-1.842.37-2.513 1.041a3.548 3.548 0 00-1.037 2.633l-.12-.003c-.949 0-1.842.37-2.514 1.041a3.543 3.543 0 00-1.036 2.633c-.04-.001-.08-.003-.121-.003-.949 0-1.842.37-2.513 1.041s-1.042 1.564-1.042 2.514c0 .767.241 1.496.688 2.102a3.559 3.559 0 00-1.491 5.908l.01.011 2.192 2.192.009.01c.132.132.272.251.42.359l-.648.648c-.631.631-.952 1.49-.904 2.419a3.65 3.65 0 001.081 2.394l3.708 3.709c.688.688 1.591 1.032 2.495 1.032s1.807-.344 2.495-1.032l1.724-1.724a11.366 11.366 0 004.777 0l1.723 1.723c.688.688 1.591 1.032 2.495 1.032s1.807-.344 2.495-1.032l3.709-3.709c1.375-1.375 1.532-3.457.348-4.641l-.79-.79.39-.39.013-.013zM11.573 2.586c.309-.309.72-.479 1.157-.479s.848.17 1.157.479l2.936 2.936a1.638 1.638 0 01-1.157 2.793c-.437 0-.848-.17-1.157-.479l-.001-.001L11.573 4.9l-.007-.007a1.639 1.639 0 01.007-2.308zm-3.675 5.98a1.639 1.639 0 01.004-2.31c.309-.309.72-.479 1.157-.479s.847.17 1.156.479h.001l.003.003 2.933 2.933.006.006.729.729c.309.309.479.72.479 1.157s-.17.848-.479 1.157c-.309.309-.72.479-1.157.479s-.848-.17-1.157-.479l-.012-.011-.719-.72-.003-.003-2.937-2.936-.004-.004zM4.232 9.927c.309-.309.719-.479 1.157-.479s.848.17 1.157.479l2.94 2.94a1.638 1.638 0 01-1.16 2.79c-.437 0-.848-.17-1.157-.479l-.011-.011-2.916-2.916-.009-.01c-.309-.309-.479-.72-.479-1.157s.17-.848.48-1.157zm-1.826 7.829l-.011-.011a1.639 1.639 0 01.001-2.313c.309-.309.72-.479 1.157-.479s.848.17 1.157.479l2.202 2.202a1.638 1.638 0 01-1.157 2.793c-.08 0-.16-.006-.238-.017l-.018-.003a1.62 1.62 0 01-.895-.452l-.008-.008zm11.153 9.371l-.024-.005a.541.541 0 00-.058-.012l-.043-.006-.048-.005a.836.836 0 00-.051-.002h-.041a.489.489 0 00-.054.003l-.039.003a.81.81 0 00-.052.008l-.041.008-.047.011a.59.59 0 00-.045.013l-.041.014-.047.019a.608.608 0 00-.037.017c-.016.008-.031.015-.046.024l-.037.022-.041.026-.04.03-.032.025a.592.592 0 00-.062.057l-2.102 2.102a1.61 1.61 0 01-2.276 0l-3.708-3.708a1.736 1.736 0 01-.521-1.135c-.019-.38.103-.723.345-.964l1.325-1.325.061.001c.949 0 1.842-.37 2.513-1.041a3.56 3.56 0 00.796-3.808 3.539 3.539 0 001.774-.963 3.536 3.536 0 001.003-2.007c.287.073.584.112.888.112.949 0 1.842-.37 2.513-1.041s1.041-1.564 1.041-2.514c0-.303-.038-.6-.111-.886a3.525 3.525 0 002.006-1.005 3.559 3.559 0 000-5.027l-.823-.823.757-.757a1.638 1.638 0 012.793 1.157c0 .437-.17.848-.479 1.157a.957.957 0 000 1.356.959.959 0 001.357 0c.638-.638 1.676-.638 2.314 0s.638 1.676 0 2.314a.957.957 0 000 1.356.959.959 0 001.357 0c.309-.309.72-.479 1.157-.479s.848.17 1.157.479c.309.309.48.72.48 1.157 0 .431-.166.837-.467 1.144l-.013.013-1.376 1.376a.96.96 0 00-.078 1.269l.049.063a.96.96 0 001.247.234 1.634 1.634 0 011.993.249 1.638 1.638 0 010 2.314l-2.202 2.202-.013.013-4.726 4.726a9.461 9.461 0 01-9.104 2.44zm14.243-3.285c.421.421.258 1.322-.348 1.928l-3.709 3.708a1.61 1.61 0 01-2.276 0l-1.02-1.02a11.357 11.357 0 003.571-2.413l2.992-2.992z"/></symbol><symbol id="icon-3" viewBox="0 0 32 32"><path fill="#814fe3" d="M27.331 18.133v-.028a3.452 3.452 0 00-3.448-3.448h-.941l4.126-9.952c.727-1.756-.11-3.777-1.866-4.505s-3.778.11-4.505 1.866l-2.579 6.226-2.579-6.226C14.811.31 12.79-.528 11.034.2S8.44 2.949 9.168 4.705l2.24 5.409a3.468 3.468 0 00-.763.611 3.436 3.436 0 00-2.51-1.088 3.452 3.452 0 00-3.448 3.448v7.531c0 6.243 5.079 11.322 11.322 11.322s11.322-5.079 11.322-11.322zM11.752 1.932a1.575 1.575 0 012.055.851l3.445 8.317a.938.938 0 001.732 0l3.445-8.317c.332-.801 1.254-1.183 2.055-.852s1.183 1.254.851 2.055l-4.424 10.67h-4.307v-1.573c0-1.873-1.501-3.4-3.363-3.446L10.9 3.986a1.575 1.575 0 01.851-2.055zm1.404 12.726c-.566 0-1.101.138-1.573.381v-1.955c0-.867.706-1.573 1.573-1.573s1.573.706 1.573 1.573v1.573zm-6.594-1.574c0-.867.706-1.573 1.573-1.573s1.573.706 1.573 1.573v5.021c0 .867-.706 1.573-1.573 1.573s-1.573-.706-1.573-1.573zm9.447 16.979c-5.019 0-9.136-3.935-9.429-8.882a3.44 3.44 0 004.066-.716 3.437 3.437 0 002.511 1.088h8.216a.938.938 0 000-1.876h-8.216c-.867 0-1.573-.706-1.573-1.573s.706-1.573 1.573-1.573h10.726c.864 0 1.567.7 1.573 1.562v2.521c0 5.209-4.238 9.447-9.447 9.447z"/></symbol><symbol id="icon-4" viewBox="0 0 32 32"><path fill="#0eafa4" d="M21.372 20.522c-.758 0-1.375-.534-1.375-1.19s.617-1.19 1.375-1.19 1.375.534 1.375 1.19a.625.625 0 001.25 0c0-1.145-.853-2.108-2-2.37v-.325a.625.625 0 00-1.25 0v.325c-1.147.261-2 1.224-2 2.37 0 1.345 1.178 2.44 2.625 2.44.758 0 1.375.534 1.375 1.19s-.617 1.19-1.375 1.19-1.375-.534-1.375-1.19a.625.625 0 00-1.25 0c0 1.145.853 2.108 2 2.37v.27a.625.625 0 001.25 0v-.27c1.147-.261 2-1.224 2-2.37 0-1.346-1.178-2.44-2.625-2.44zm6.846-3.717a8.148 8.148 0 00-3.326-2.944.624.624 0 10-.541 1.127 6.917 6.917 0 013.9 6.2 6.888 6.888 0 01-.801 3.224.624.624 0 101.103.586 8.141 8.141 0 00-.334-8.195zm-5.863-3.742h-.042a.625.625 0 000 1.25h.039a.625.625 0 00.003-1.25zM18.4 27.388a6.917 6.917 0 01-3.9-6.2c0-1.124.277-2.239.801-3.224a.624.624 0 10-1.103-.587 8.141 8.141 0 00.334 8.195 8.148 8.148 0 003.326 2.944.622.622 0 00.834-.292.625.625 0 00-.293-.834zm2.038.675h-.036a.625.625 0 10-.006 1.25h.042a.625.625 0 000-1.25z"/><path fill="#0eafa4" d="M24.213 10.948a2.863 2.863 0 00-.278-.511h1.627c1.585 0 2.875-1.29 2.875-2.875s-1.29-2.875-2.875-2.875h-5.005a2.86 2.86 0 00.505-1.625A2.879 2.879 0 0018.187.187H2.875C1.29.187 0 1.477 0 3.062s1.29 2.875 2.875 2.875H7.88c-.318.463-.505 1.022-.505 1.625s.187 1.162.505 1.625H6.25a2.872 2.872 0 00-1.787 5.125 2.87 2.87 0 000 4.5 2.87 2.87 0 000 4.5 2.87 2.87 0 00-1.088 2.25 2.879 2.879 0 002.875 2.875h7.366a10.598 10.598 0 007.759 3.375C27.234 31.812 32 27.046 32 21.187c0-4.876-3.302-8.995-7.787-10.24zm1.349-5.01c.896 0 1.625.729 1.625 1.625s-.729 1.625-1.625 1.625H10.25c-.896 0-1.625-.729-1.625-1.625s.729-1.625 1.625-1.625h15.312zM2.875 4.688c-.896 0-1.625-.729-1.625-1.625s.729-1.625 1.625-1.625h15.312c.896 0 1.625.729 1.625 1.625s-.729 1.625-1.625 1.625H2.875zm3.375 5.749h15.312c.252 0 .493.059.709.163a10.595 10.595 0 00-8.415 3.087H6.25c-.896 0-1.625-.729-1.625-1.625s.729-1.625 1.625-1.625zm0 4.5h6.538a10.569 10.569 0 00-1.606 3.25H6.25c-.896 0-1.625-.729-1.625-1.625s.729-1.625 1.625-1.625zm0 4.5h4.645a10.633 10.633 0 00-.039 3.25H6.25c-.896 0-1.625-.729-1.625-1.625s.729-1.625 1.625-1.625zm0 7.75c-.896 0-1.625-.729-1.625-1.625s.729-1.625 1.625-1.625h4.862a10.566 10.566 0 001.5 3.25H6.251zm15.125 3.376c-5.169 0-9.375-4.206-9.375-9.375s4.206-9.375 9.375-9.375 9.375 4.206 9.375 9.375-4.206 9.375-9.375 9.375z"/></symbol><symbol id="icon-5" viewBox="0 0 32 32"><path fill="#0eafa4" d="M16 0C9.254 0 3.766 5.488 3.766 12.234c0 2.321.653 4.58 1.888 6.533a12.265 12.265 0 004.388 4.153v3.121A5.965 5.965 0 0016 31.999c1.591 0 3.087-.62 4.213-1.745s1.745-2.622 1.745-4.213v-3.122a12.273 12.273 0 004.388-4.153 12.204 12.204 0 001.888-6.533C28.234 5.487 22.746-.001 16-.001zm-4.083 25.772v-2.478h8.166v2.478zM16 14.561a.938.938 0 00-.938.938v5.921h-3.146v-6.992h8.167v6.992h-3.146v-5.921a.938.938 0 00-.938-.938zm-1.62-3.146h3.24l1.137 1.137h-5.515zM16 30.125a4.089 4.089 0 01-3.754-2.478h7.51a4.071 4.071 0 01-.869 1.282A4.058 4.058 0 0116 30.125zm5.958-9.413v-7.223a.94.94 0 00-.274-.663l-5.021-5.021a.938.938 0 00-1.326 0l-5.021 5.021a.937.937 0 00-.275.663v7.223a10.297 10.297 0 01-4.401-8.478c0-5.712 4.647-10.359 10.359-10.359s10.359 4.647 10.359 10.359c0 3.43-1.654 6.555-4.401 8.478zM.938 11.297c-.247 0-.488.1-.663.274a.94.94 0 000 1.326c.175.174.416.274.663.274s.489-.1.663-.274c.174-.175.274-.416.274-.663s-.1-.488-.274-.663a.946.946 0 00-.663-.274zm30.787.274c-.175-.174-.416-.274-.663-.274s-.489.1-.663.274c-.174.175-.274.416-.274.663s.1.488.274.663c.174.174.416.274.663.274s.488-.1.663-.274c.175-.175.275-.416.275-.663s-.1-.488-.275-.663zM5.349 2.521c.247 0 .488-.1.663-.275a.942.942 0 000-1.326C5.837.746 5.596.646 5.349.646s-.489.1-.663.274c-.174.174-.274.416-.274.663s.1.488.274.663a.943.943 0 00.663.275zm21.302 19.427a.941.941 0 00-.938.938.941.941 0 00.938.937c.247 0 .489-.1.663-.274s.274-.416.274-.663a.941.941 0 00-.937-.938zm0-19.427c.246 0 .488-.1.663-.275a.942.942 0 000-1.326c-.175-.174-.416-.274-.663-.274s-.489.1-.663.274c-.174.174-.274.416-.274.663s.1.488.274.663a.943.943 0 00.663.275zM5.349 21.948c-.247 0-.489.101-.663.275s-.274.416-.274.663c0 .247.1.489.274.663s.416.274.663.274a.941.941 0 00.938-.937.943.943 0 00-.938-.938z"/></symbol><symbol id="icon-6" viewBox="0 0 32 32"><path fill="#fd642f" d="M31.725 10.316L21.684.274a.937.937 0 00-.663-.275H8.469a3.452 3.452 0 00-3.448 3.448v12.116H3.448A3.452 3.452 0 000 19.011v4.017a3.452 3.452 0 003.448 3.448h1.573v2.075a3.452 3.452 0 003.448 3.448h20.083A3.452 3.452 0 0032 28.551V10.978a.937.937 0 00-.275-.663zm-9.767-7.115l6.841 6.841h-5.268a1.575 1.575 0 01-1.573-1.573zM1.875 23.029v-4.017c0-.867.706-1.573 1.573-1.573h17.573c.867 0 1.573.706 1.573 1.573v4.017c0 .867-.706 1.573-1.573 1.573H3.448a1.575 1.575 0 01-1.573-1.573zm26.677 7.096H8.469a1.575 1.575 0 01-1.573-1.573v-2.075h14.125a3.452 3.452 0 003.448-3.448v-4.017a3.452 3.452 0 00-3.448-3.448H6.896V3.448c0-.867.706-1.573 1.573-1.573h11.614v6.594a3.452 3.452 0 003.448 3.448h6.594v16.635c0 .867-.706 1.573-1.573 1.573z"/></symbol><symbol id="icon-7" viewBox="0 0 32 32"><path d="M31.725 30.4l-3.768-3.769A15.884 15.884 0 0032 16c0-3.08-.867-6.04-2.513-8.611l2.238-2.238a.939.939 0 00-.366-1.552l-2.218-.74-.739-2.218A.94.94 0 0026.85.274l-2.238 2.239A15.893 15.893 0 0016.001 0C11.727 0 7.709 1.664 4.687 4.686S.001 11.726.001 16c0 3.96 1.43 7.699 4.043 10.631L.275 30.4a.938.938 0 001.326 1.326l3.769-3.769C8.302 30.571 12.041 32 16.001 32s7.699-1.43 10.631-4.043l3.769 3.769a.935.935 0 001.326 0 .938.938 0 000-1.326zM27.103 2.673l.408 1.223c.093.28.313.5.593.593l1.224.408-2.068 2.068-1.668-.556-.556-1.668zM20.083 16c0 2.251-1.832 4.083-4.084 4.083S11.916 18.251 11.916 16a4.088 4.088 0 014.083-4.083c.787 0 1.522.224 2.146.611l-2.809 2.809a.938.938 0 001.326 1.326l2.809-2.809A4.06 4.06 0 0120.083 16zm-.587-4.822A5.93 5.93 0 0016 10.042c-3.285 0-5.958 2.673-5.958 5.958s2.673 5.958 5.958 5.958A5.966 5.966 0 0021.959 16a5.924 5.924 0 00-1.137-3.496l2.241-2.241A9.062 9.062 0 0125.104 16c0 5.02-4.084 9.104-9.104 9.104S6.896 21.02 6.896 16 10.98 6.896 16 6.896c2.173 0 4.17.766 5.738 2.041zM1.875 16C1.875 8.211 8.211 1.875 16 1.875c2.581 0 5.066.689 7.252 2.001a.937.937 0 00-.179.909l.705 2.113-.709.709a10.929 10.929 0 00-7.068-2.585c-6.054 0-10.979 4.925-10.979 10.979S9.947 26.98 16.001 26.98c6.054 0 10.979-4.925 10.979-10.979 0-2.69-.973-5.157-2.585-7.068l.709-.709 2.113.705a.94.94 0 00.908-.18 14.03 14.03 0 012.001 7.253c0 7.789-6.336 14.125-14.125 14.125S1.876 23.791 1.876 16.002z"/></symbol></defs></svg>