<svg aria-hidden="true" style="position:absolute;width:0;height:0" xmlns="http://www.w3.org/2000/svg" overflow="hidden"><defs><symbol id="Ar" viewBox="0 0 47 32"><path d="M31.493.468a1.682 1.682 0 00-2.358 0 1.606 1.606 0 000 2.289l11.951 11.618H1.62A1.62 1.62 0 000 15.974v.006c0 .908.736 1.644 1.644 1.644h39.443L29.136 29.218a1.606 1.606 0 000 2.289 1.682 1.682 0 002.358 0l14.769-14.375a1.538 1.538 0 00.001-2.263l-.001-.001z"/></symbol><symbol id="icon-arrow-long" viewBox="0 0 96 32"><path d="M0 17.231v-2.462h54.154v2.462H0z"/><path d="M80.724.468c-.304-.297-.719-.48-1.178-.48s-.874.183-1.178.48a1.606 1.606 0 000 2.289l11.951 11.618H50.85a1.62 1.62 0 00-1.62 1.599v.006c0 .908.736 1.644 1.644 1.644h39.444L78.367 29.218a1.606 1.606 0 000 2.289c.304.297.719.48 1.178.48s.874-.183 1.178-.48l14.769-14.375a1.538 1.538 0 00.001-2.263l-.001-.001z"/></symbol></defs></svg>